<svg xmlns="http://www.w3.org/2000/svg" xmlns:xlink="http://www.w3.org/1999/xlink" style="width:0;height:0;visibility:hidden;">
  <defs/>
  <symbol id="rd-icon-ai" viewBox="0 0 32 32" fill="none">
    <path fill-rule="evenodd" clip-rule="evenodd" d="M1.56327 8.45658C1.16068 8.30775 0.742329 8.19067 0.311198 8.1083C0.279544 8.10228 0.247823 8.09642 0.216029 8.09073C-0.0720097 8.03934 -0.0720097 7.62618 0.216029 7.57479C0.247823 7.5691 0.279544 7.56325 0.311198 7.55722C0.742329 7.47485 1.16068 7.35777 1.56327 7.20894C1.80419 7.11987 2.03947 7.01946 2.26846 6.90828C3.85426 6.13852 5.13852 4.85426 5.90832 3.26846C6.01946 3.03947 6.11991 2.8042 6.20894 2.56327C6.35776 2.16068 6.47485 1.74233 6.55722 1.3112C6.56324 1.27954 6.5691 1.24782 6.57478 1.21603C6.62618 0.92799 7.03934 0.92799 7.09073 1.21603C7.09642 1.24782 7.10227 1.27954 7.1083 1.3112C7.19067 1.74233 7.30775 2.16068 7.45658 2.56327C7.54565 2.80419 7.64606 3.03947 7.75724 3.26846C8.527 4.85426 9.81126 6.13852 11.3971 6.90828C11.6261 7.01946 11.8613 7.11987 12.1022 7.20894C12.5048 7.35777 12.9232 7.47485 13.3543 7.55722C13.386 7.56325 13.4177 7.5691 13.4495 7.57479C13.7375 7.62618 13.7375 8.03934 13.4495 8.09073C13.4177 8.09642 13.386 8.10228 13.3543 8.1083C12.9232 8.19067 12.5048 8.30775 12.1022 8.45658C11.8613 8.54565 11.6261 8.64606 11.3971 8.75724C9.81126 9.527 8.527 10.8113 7.75724 12.3971C7.64606 12.6261 7.54565 12.8613 7.45658 13.1022C7.30775 13.5048 7.19067 13.9232 7.1083 14.3543C7.10227 14.386 7.09642 14.4177 7.09073 14.4495C7.03934 14.7375 6.62618 14.7375 6.57478 14.4495C6.5691 14.4177 6.56324 14.386 6.55722 14.3543C6.47485 13.9232 6.35776 13.5048 6.20894 13.1022C6.11991 12.8613 6.01946 12.6261 5.90832 12.3971C5.13852 10.8113 3.85426 9.527 2.26846 8.75724C2.03947 8.64606 1.8042 8.54565 1.56327 8.45658ZM4.07225 7.83276C5.17179 8.55317 6.11235 9.49373 6.83276 10.5933C7.55316 9.49373 8.49373 8.55317 9.5933 7.83276C8.49373 7.11236 7.55316 6.17179 6.83276 5.07226C6.11235 6.17179 5.17179 7.11236 4.07225 7.83276ZM11.1882 18.6918C10.9066 18.616 10.6211 18.5494 10.332 18.4924C10.2868 18.4836 10.2416 18.4749 10.1963 18.4665L10.1825 18.4639L10.1639 18.4605C10.1353 18.4553 10.1039 18.4497 10.0411 18.4384L10.0192 18.4345C9.55855 18.3474 9.55855 17.6877 10.0192 17.6006L10.0411 17.5967C10.1039 17.5854 10.1353 17.5798 10.1639 17.5746L10.1825 17.5712L10.1963 17.5687C10.2416 17.5602 10.2868 17.5516 10.332 17.5427C10.6211 17.4857 10.9066 17.4192 11.1882 17.3433C11.4286 17.2785 11.6663 17.2068 11.9009 17.1287C15.6962 15.8635 18.6828 12.877 19.948 9.08159C20.0261 8.847 20.0978 8.60935 20.1626 8.36882C20.2385 8.0873 20.305 7.80178 20.362 7.5127C20.3709 7.46755 20.3795 7.42231 20.388 7.37699L20.3905 7.36324L20.3939 7.34466C20.3991 7.31639 20.4046 7.28537 20.4156 7.22397L20.416 7.22184L20.4199 7.1999C20.507 6.73925 21.1667 6.73925 21.2538 7.1999L21.2578 7.22184C21.269 7.28465 21.2746 7.31605 21.2798 7.34466L21.2832 7.36324L21.2858 7.37699C21.2942 7.42231 21.3029 7.46755 21.3117 7.5127C21.3687 7.80183 21.4353 8.0873 21.5111 8.36882C21.5759 8.60935 21.6476 8.847 21.7257 9.08159C22.9909 12.877 25.9775 15.8635 29.7728 17.1287C30.0074 17.2068 30.2451 17.2785 30.4856 17.3433C30.7671 17.4192 31.0526 17.4857 31.3417 17.5427C31.3869 17.5516 31.4321 17.5602 31.4774 17.5687L31.4912 17.5712L31.5098 17.5746C31.5384 17.5798 31.5698 17.5854 31.6326 17.5967L31.6545 17.6006C32.1152 17.6877 32.1152 18.3474 31.6545 18.4345L31.6326 18.4384L31.5661 18.4503L31.5098 18.4605L31.4912 18.4639L31.4774 18.4665C31.4321 18.4749 31.3869 18.4836 31.3417 18.4924C31.0526 18.5494 30.7671 18.616 30.4856 18.6918C30.2451 18.7566 30.0074 18.8283 29.7728 18.9064C25.9775 20.1716 22.9909 23.1582 21.7257 26.9535C21.6476 27.1881 21.5759 27.4258 21.5111 27.6663C21.4353 27.9478 21.3687 28.2333 21.3117 28.5224C21.3029 28.5676 21.2942 28.6128 21.2858 28.6581L21.2832 28.6719L21.2798 28.6905L21.2722 28.7323L21.2582 28.8109L21.2538 28.8352C21.1667 29.2959 20.507 29.2959 20.4199 28.8352L20.416 28.8133C20.4048 28.7506 20.3991 28.719 20.3939 28.6905L20.3905 28.6719L20.388 28.6581C20.3795 28.6128 20.3709 28.5676 20.362 28.5224C20.305 28.2333 20.2385 27.9478 20.1626 27.6663C20.0978 27.4258 20.0261 27.1881 19.948 26.9535C18.6828 23.1582 15.6962 20.1716 11.9009 18.9064C11.6663 18.8283 11.4286 18.7566 11.1882 18.6918ZM14.2029 18.0176C17.0888 19.427 19.4274 21.7657 20.8369 24.6515C22.2463 21.7657 24.5849 19.427 27.4708 18.0176C24.5849 16.6081 22.2463 14.2695 20.8369 11.3836C19.4274 14.2695 17.0888 16.6081 14.2029 18.0176ZM4.83573 27.5277C5.31989 27.6201 5.7785 27.782 6.201 28.0025C6.38895 28.1006 6.56973 28.2103 6.74241 28.3308C7.2236 28.6662 7.64198 29.0847 7.97749 29.5658C8.09788 29.7385 8.20762 29.9193 8.30569 30.1072C8.52628 30.5297 8.68809 30.9884 8.78056 31.4725C8.78438 31.4925 8.78811 31.5125 8.79168 31.5326C8.82414 31.7145 9.08508 31.7145 9.11755 31.5326C9.12111 31.5125 9.1248 31.4925 9.12862 31.4725C9.22113 30.9884 9.38295 30.5297 9.60349 30.1072C9.7016 29.9193 9.81134 29.7385 9.93174 29.5658C10.2672 29.0847 10.6856 28.6662 11.1668 28.3308C11.3395 28.2103 11.5203 28.1006 11.7082 28.0025C12.1307 27.782 12.5893 27.6201 13.0735 27.5277C13.0935 27.5238 13.1135 27.5201 13.1336 27.5165C13.3155 27.4841 13.3155 27.2231 13.1336 27.1907C13.1135 27.1871 13.0935 27.1834 13.0735 27.1796C12.5893 27.0871 12.1307 26.9253 11.7082 26.7047C11.5203 26.6066 11.3395 26.4969 11.1668 26.3765C10.6856 26.041 10.2672 25.6226 9.93174 25.1414C9.81134 24.9687 9.7016 24.7879 9.60349 24.6C9.38295 24.1775 9.22113 23.7189 9.12862 23.2347C9.1248 23.2147 9.12111 23.1947 9.11755 23.1746C9.08508 22.9927 8.82414 22.9927 8.79168 23.1746C8.78811 23.1947 8.78438 23.2147 8.78056 23.2347C8.68809 23.7189 8.52628 24.1775 8.30569 24.6C8.20762 24.7879 8.09788 24.9687 7.97749 25.1414C7.64198 25.6226 7.2236 26.041 6.74241 26.3765C6.56973 26.4969 6.38895 26.6066 6.201 26.7047C5.7785 26.9253 5.31989 27.0871 4.83573 27.1796C4.81574 27.1834 4.79571 27.1871 4.7756 27.1907C4.59371 27.2231 4.59371 27.4841 4.7756 27.5165C4.79571 27.5201 4.81574 27.5238 4.83573 27.5277ZM8.95459 28.0595C8.73727 27.8069 8.50128 27.5709 8.2487 27.3536C8.50128 27.1363 8.73727 26.9003 8.95459 26.6477C9.17195 26.9003 9.40794 27.1363 9.66048 27.3536C9.40794 27.5709 9.17195 27.8069 8.95459 28.0595Z" fill="#ffffff"></path>
  </symbol>
</svg>