<svg aria-hidden="true" style="position:absolute;width:0;height:0" width="24" height="24" xmlns="http://www.w3.org/2000/svg" overflow="hidden"><defs><symbol id="rd-icon-ai" viewBox="0 0 24 24"><path fill-rule="evenodd" clip-rule="evenodd" d="M1.563 7.457A7.868 7.868 0 0 0 .216 7.09c-.288-.052-.288-.465 0-.516l.095-.018a7.868 7.868 0 0 0 1.957-.649A7.87 7.87 0 0 0 6.575.216c.051-.288.464-.288.516 0l.017.095a7.868 7.868 0 0 0 .65 1.957 7.87 7.87 0 0 0 5.692 4.307c.288.051.288.464 0 .516a7.87 7.87 0 0 0-2.052.667A7.87 7.87 0 0 0 7.09 13.45c-.052.288-.465.288-.516 0a7.87 7.87 0 0 0-.666-2.052 7.87 7.87 0 0 0-4.346-3.941Zm2.51-.624c1.099.72 2.04 1.66 2.76 2.76a9.575 9.575 0 0 1 2.76-2.76 9.575 9.575 0 0 1-2.76-2.76 9.576 9.576 0 0 1-2.76 2.76Zm7.115 10.859a12.877 12.877 0 0 0-.992-.226l-.014-.002-.018-.003-.123-.023-.022-.003c-.46-.088-.46-.747 0-.834l.022-.004.123-.022.018-.004.014-.002.136-.026a12.815 12.815 0 0 0 1.569-.414 12.736 12.736 0 0 0 8.487-9.752l.002-.014.004-.018.022-.121v-.002l.004-.022c.087-.46.747-.46.834 0l.004.022.022.123.003.018.003.014.026.136a12.859 12.859 0 0 0 .414 1.569 12.736 12.736 0 0 0 9.751 8.487l.014.002.019.004.123.022.021.004c.461.087.461.746 0 .834l-.021.003-.067.012-.056.01-.019.004-.014.003-.135.025a12.86 12.86 0 0 0-1.57.414 12.736 12.736 0 0 0-8.486 9.752l-.003.014-.003.018-.008.042-.014.079-.004.024c-.087.46-.747.46-.834 0l-.004-.022a32.56 32.56 0 0 0-.022-.122l-.003-.02-.003-.013-.026-.136a12.797 12.797 0 0 0-.414-1.569 12.736 12.736 0 0 0-8.76-8.261Zm3.015-.674a14.443 14.443 0 0 1 6.634 6.633 14.443 14.443 0 0 1 6.634-6.633 14.443 14.443 0 0 1-6.634-6.634 14.444 14.444 0 0 1-6.634 6.634Zm-9.367 9.51a4.957 4.957 0 0 1 3.47 2.58 4.957 4.957 0 0 1 .486 1.425c.032.181.293.181.326 0l.01-.06a4.96 4.96 0 0 1 4.006-3.956c.181-.033.181-.294 0-.326a4.957 4.957 0 0 1-3.53-2.59 4.96 4.96 0 0 1-.486-1.426c-.033-.182-.294-.182-.326 0l-.011.06a4.956 4.956 0 0 1-2.58 3.47 4.957 4.957 0 0 1-1.425.486c-.182.032-.182.293 0 .326l.06.01Zm4.119.532a6.667 6.667 0 0 0-.706-.706c.252-.218.488-.454.706-.706.217.252.453.488.705.706a6.675 6.675 0 0 0-.705.706Z" fill="#fff"/></symbol></defs></svg>