<svg xmlns="http://www.w3.org/2000/svg" xmlns:xlink="http://www.w3.org/1999/xlink" style="width:0;height:0;visibility:hidden;">
  <defs/>
    <symbol id="rd-icon-ai" viewBox="0 0 18 18" fill="none">
    <path fill-rule="evenodd" clip-rule="evenodd" d="M0.879337 4.75683C0.652884 4.67311 0.41756 4.60725 0.175049 4.56092C0.157244 4.55753 0.1394 4.55424 0.121516 4.55104C-0.0405055 4.52213 -0.0405055 4.28973 0.121516 4.26082C0.1394 4.25762 0.157244 4.25433 0.175049 4.25094C0.41756 4.2046 0.652884 4.13874 0.879337 4.05503C1.01486 4.00493 1.1472 3.94845 1.27601 3.88591C2.16802 3.45292 2.89042 2.73052 3.32343 1.83851C3.38595 1.7097 3.44245 1.57736 3.49253 1.44184C3.57624 1.21538 3.6421 0.98006 3.68843 0.737549C3.69182 0.719744 3.69512 0.7019 3.69832 0.684016C3.72722 0.521995 3.95963 0.521995 3.98854 0.684016C3.99173 0.7019 3.99503 0.719744 3.99842 0.737549C4.04475 0.98006 4.11061 1.21538 4.19432 1.44184C4.24443 1.57736 4.30091 1.7097 4.36345 1.83851C4.79644 2.73052 5.51883 3.45292 6.41085 3.88591C6.53966 3.94845 6.672 4.00493 6.80751 4.05503C7.03397 4.13874 7.26929 4.2046 7.51182 4.25094C7.52962 4.25433 7.54745 4.25762 7.56533 4.26082C7.72737 4.28973 7.72737 4.52213 7.56533 4.55104C7.54745 4.55424 7.52962 4.55753 7.51182 4.56092C7.26929 4.60725 7.03397 4.67311 6.80751 4.75683C6.672 4.80693 6.53966 4.86341 6.41085 4.92595C5.51883 5.35894 4.79644 6.08134 4.36345 6.97336C4.30091 7.10216 4.24443 7.2345 4.19432 7.37001C4.11061 7.59648 4.04475 7.83179 3.99842 8.07432C3.99503 8.0921 3.99173 8.10996 3.98854 8.12784C3.95963 8.28987 3.72722 8.28987 3.69832 8.12784C3.69512 8.10996 3.69182 8.0921 3.68843 8.07432C3.6421 7.83179 3.57624 7.59648 3.49253 7.37001C3.44245 7.2345 3.38595 7.10216 3.32343 6.97336C2.89042 6.08134 2.16802 5.35894 1.27601 4.92595C1.1472 4.86341 1.01486 4.80693 0.879337 4.75683ZM2.29064 4.40593C2.90913 4.81116 3.4382 5.34022 3.84343 5.95871C4.24865 5.34022 4.77772 4.81116 5.39623 4.40593C4.77772 4.0007 4.24865 3.47163 3.84343 2.85314C3.4382 3.47163 2.90913 4.0007 2.29064 4.40593ZM6.29334 10.5142C6.13496 10.4715 5.97438 10.434 5.81177 10.402C5.78635 10.397 5.76091 10.3921 5.73541 10.3874L5.72768 10.3859L5.71722 10.384C5.70113 10.3811 5.68347 10.378 5.64814 10.3716L5.6358 10.3694C5.37668 10.3204 5.37668 9.94935 5.6358 9.90032L5.64814 9.89813C5.68347 9.8918 5.70113 9.88865 5.71722 9.88572L5.72768 9.88381L5.73541 9.88237C5.76091 9.87762 5.78635 9.87275 5.81175 9.86777C5.97436 9.83573 6.13496 9.79828 6.29334 9.7556C6.42861 9.71915 6.56229 9.67885 6.69425 9.63488C8.82914 8.92323 10.5091 7.24329 11.2207 5.10839C11.2647 4.97644 11.305 4.84276 11.3415 4.70746C11.3841 4.5491 11.4216 4.3885 11.4536 4.2259C11.4586 4.2005 11.4635 4.17505 11.4682 4.14956L11.4697 4.14182L11.4716 4.13137C11.4745 4.11547 11.4776 4.09802 11.4838 4.06348L11.484 4.06229L11.4862 4.04995C11.5352 3.79083 11.9063 3.79083 11.9553 4.04995L11.9575 4.06229C11.9638 4.09762 11.967 4.11528 11.9699 4.13137L11.9718 4.14182L11.9732 4.14956C11.978 4.17505 11.9829 4.2005 11.9878 4.2259C12.0199 4.38853 12.0573 4.5491 12.1 4.70746C12.1365 4.84276 12.1768 4.97644 12.2207 5.10839C12.9324 7.24329 14.6123 8.92323 16.7472 9.63488C16.8792 9.67885 17.0128 9.71915 17.1481 9.7556C17.3065 9.79828 17.4671 9.83573 17.6297 9.86777C17.6551 9.87275 17.6806 9.87762 17.7061 9.88237L17.7138 9.88381L17.7242 9.88572C17.7403 9.88865 17.758 9.8918 17.7933 9.89813L17.8057 9.90032C18.0648 9.94935 18.0648 10.3204 17.8057 10.3694L17.7559 10.3783L17.7242 10.384L17.7138 10.3859L17.7061 10.3874C17.6806 10.3921 17.6551 10.397 17.6297 10.402C17.4671 10.434 17.3065 10.4715 17.1481 10.5142C17.0128 10.5506 16.8792 10.5909 16.7472 10.6349C14.6123 11.3465 12.9324 13.0265 12.2207 15.1614C12.1768 15.2933 12.1365 15.427 12.1 15.5623C12.0573 15.7207 12.0199 15.8813 11.9878 16.0439C11.9829 16.0693 11.978 16.0947 11.9732 16.1202L11.9718 16.1279L11.9699 16.1384L11.9656 16.1619L11.9577 16.2061L11.9553 16.2198C11.9063 16.4789 11.5352 16.4789 11.4862 16.2198L11.484 16.2075C11.4777 16.1722 11.4745 16.1545 11.4716 16.1384L11.4697 16.1279L11.4682 16.1202C11.4635 16.0947 11.4586 16.0693 11.4536 16.0439C11.4216 15.8812 11.3841 15.7207 11.3415 15.5623C11.305 15.427 11.2647 15.2933 11.2207 15.1614C10.5091 13.0265 8.82914 11.3465 6.69425 10.6349C6.56229 10.5909 6.42861 10.5506 6.29334 10.5142ZM7.98916 10.1349C9.61243 10.9277 10.9279 12.2432 11.7207 13.8665C12.5135 12.2432 13.829 10.9277 15.4523 10.1349C13.829 9.34206 12.5135 8.02658 11.7207 6.4033C10.9279 8.02658 9.61243 9.34206 7.98916 10.1349ZM2.7201 15.4843C2.99244 15.5363 3.25041 15.6274 3.48806 15.7514C3.59379 15.8066 3.69548 15.8683 3.79261 15.9361C4.06327 16.1248 4.29861 16.3601 4.48734 16.6308C4.55506 16.7279 4.61679 16.8296 4.67195 16.9353C4.79603 17.173 4.88705 17.431 4.93906 17.7033C4.94121 17.7145 4.94331 17.7258 4.94532 17.7371C4.96358 17.8394 5.11036 17.8394 5.12862 17.7371C5.13063 17.7258 5.1327 17.7145 5.13485 17.7033C5.18689 17.431 5.27791 17.173 5.40196 16.9353C5.45715 16.8296 5.51888 16.7279 5.5866 16.6308C5.7753 16.3601 6.01066 16.1248 6.28133 15.9361C6.37846 15.8683 6.48015 15.8066 6.58585 15.7514C6.82353 15.6274 7.0815 15.5363 7.35384 15.4843C7.36508 15.4822 7.37635 15.4801 7.38764 15.4781C7.48997 15.4598 7.48997 15.313 7.38764 15.2948C7.37635 15.2927 7.36508 15.2907 7.35384 15.2885C7.0815 15.2365 6.82353 15.1455 6.58585 15.0214C6.48015 14.9662 6.37846 14.9045 6.28133 14.8368C6.01066 14.6481 5.7753 14.4127 5.5866 14.1421C5.51888 14.0449 5.45715 13.9432 5.40196 13.8375C5.27791 13.5999 5.18689 13.3419 5.13485 13.0695C5.1327 13.0583 5.13063 13.047 5.12862 13.0357C5.11036 12.9334 4.96358 12.9334 4.94532 13.0357C4.94331 13.047 4.94121 13.0583 4.93906 13.0695C4.88705 13.3419 4.79603 13.5999 4.67195 13.8375C4.61679 13.9432 4.55506 14.0449 4.48734 14.1421C4.29861 14.4127 4.06327 14.6481 3.79261 14.8368C3.69548 14.9045 3.59379 14.9662 3.48806 15.0214C3.25041 15.1455 2.99244 15.2365 2.7201 15.2885C2.70886 15.2907 2.69759 15.2927 2.68627 15.2948C2.58396 15.313 2.58396 15.4598 2.68627 15.4781C2.69759 15.4801 2.70886 15.4822 2.7201 15.4843ZM5.03696 15.7835C4.91472 15.6414 4.78197 15.5087 4.63989 15.3864C4.78197 15.2642 4.91472 15.1314 5.03696 14.9894C5.15922 15.1314 5.29197 15.2642 5.43402 15.3864C5.29197 15.5087 5.15922 15.6414 5.03696 15.7835Z" fill="currentColor"></path>
  </symbol>
</svg>