<svg xmlns="http://www.w3.org/2000/svg" xmlns:xlink="http://www.w3.org/1999/xlink" style="width:0;height:0;visibility:hidden;">
   <defs/>
   <symbol id="rd-icon-ai" viewBox="0 0 18 18" fill="none">
    <path fill-rule="evenodd" clip-rule="evenodd" d="M6.00001 2C3.79828 2 2 3.79828 2 6C2 6.31109 2.04134 6.62559 2.12666 6.94554L2.13265 6.96803L2.1376 6.99078C2.23385 7.43355 2.37012 7.68566 2.74312 8.32519C2.82853 8.46776 2.93833 8.65991 3.04076 8.83916L3.05849 8.8702L3.07091 8.89503C3.10324 8.95969 3.14371 9.02847 3.19991 9.11901C3.21003 9.13532 3.22144 9.15354 3.23376 9.17321C3.27626 9.24107 3.32952 9.32612 3.37777 9.4091C3.65118 9.83519 3.95542 10.4541 4.18618 11H7.80688C8.02732 10.4557 8.31306 9.83584 8.56499 9.41597L8.57723 9.39557L8.59043 9.37577C8.62047 9.3307 8.65647 9.26884 8.71623 9.16339C8.72016 9.15645 8.72419 9.14934 8.7283 9.14207C8.77782 9.05461 8.84044 8.944 8.91041 8.83098C8.92637 8.80273 8.94465 8.76962 8.96478 8.73314C9.03394 8.60781 9.12503 8.44274 9.21951 8.29864C9.57258 7.71767 9.71506 7.43038 9.81098 7.00832L9.81336 6.99783L9.81597 6.9874C9.90208 6.64297 9.94901 6.31447 9.99954 5.93716C9.96572 3.76417 8.18077 2 6.00001 2ZM0 6C0 2.6937 2.69372 0 6.00001 0C9.30631 0 12 2.6937 12 6V6.06637L11.9888 6.15033C11.9371 6.53864 11.8778 6.98334 11.7588 7.46218C11.588 8.20706 11.3052 8.71871 10.9184 9.35416L10.9077 9.37177L10.8962 9.38892C10.8453 9.46527 10.813 9.52415 10.7622 9.61674C10.7308 9.67381 10.6924 9.7437 10.6383 9.83838L10.6285 9.85551L10.6181 9.87224C10.5672 9.95362 10.5202 10.0365 10.4639 10.136L10.4555 10.1507C10.4054 10.2393 10.3405 10.3537 10.2699 10.4619C9.99809 10.921 9.61852 11.8068 9.4487 12.3162L9.22078 13H2.77925L2.55132 12.3162C2.38513 11.8176 1.97773 10.9248 1.68563 10.4755L1.67003 10.4515L1.65583 10.4266C1.62579 10.374 1.59547 10.3256 1.55379 10.259C1.53792 10.2336 1.52041 10.2056 1.50064 10.1738C1.44041 10.0767 1.3663 9.95457 1.29568 9.81641C1.19147 9.63406 1.0955 9.46645 1.02486 9.34871L1.01851 9.33813L1.01271 9.32803C0.645763 8.699 0.358876 8.20721 0.188267 7.4385C0.0635907 6.9636 0 6.48346 0 6Z" fill="currentColor"></path>
    <path fill-rule="evenodd" clip-rule="evenodd" d="M12.407 14.1812C12.3313 14.1608 12.2546 14.1429 12.1769 14.1276C12.1648 14.1252 12.1526 14.1229 12.1404 14.1206L12.1367 14.12L12.1317 14.119C12.1241 14.1176 12.1156 14.1161 12.0987 14.1131L12.0928 14.1121C11.9691 14.0886 11.9691 13.9114 12.0928 13.8879L12.0987 13.8869C12.1156 13.8839 12.1241 13.8824 12.1317 13.881L12.1367 13.88L12.1404 13.8794C12.1526 13.8771 12.1648 13.8748 12.1769 13.8724C12.2546 13.8571 12.3313 13.8392 12.407 13.8188C12.4716 13.8014 12.5355 13.7821 12.5985 13.7611C13.6185 13.4211 14.4211 12.6185 14.7611 11.5985C14.7821 11.5355 14.8014 11.4716 14.8188 11.407C14.8392 11.3313 14.8571 11.2546 14.8724 11.1769C14.8748 11.1648 14.8771 11.1526 14.8794 11.1404L14.88 11.1367L14.881 11.1317C14.8824 11.1242 14.8838 11.1158 14.8868 11.0993L14.8879 11.0928C14.9114 10.9691 15.0886 10.9691 15.1121 11.0928L15.1131 11.0987C15.1161 11.1156 15.1176 11.1241 15.119 11.1317L15.12 11.1367L15.1206 11.1404C15.1229 11.1526 15.1252 11.1648 15.1276 11.1769C15.1429 11.2546 15.1608 11.3313 15.1812 11.407C15.1986 11.4716 15.2179 11.5355 15.2389 11.5985C15.5789 12.6185 16.3815 13.4211 17.4015 13.7611C17.4645 13.7821 17.5284 13.8014 17.593 13.8188C17.6687 13.8392 17.7454 13.8571 17.8231 13.8724C17.8352 13.8748 17.8474 13.8771 17.8596 13.8794L17.8633 13.88L17.8683 13.881C17.8759 13.8824 17.8844 13.8839 17.9013 13.8869L17.9072 13.8879C18.0309 13.9114 18.0309 14.0886 17.9072 14.1121L17.8834 14.1163L17.8683 14.119L17.8633 14.12L17.8596 14.1206C17.8474 14.1229 17.8352 14.1252 17.8231 14.1276C17.7454 14.1429 17.6687 14.1608 17.593 14.1812C17.5284 14.1986 17.4645 14.2179 17.4015 14.2389C16.3815 14.5789 15.5789 15.3815 15.2389 16.4015C15.2179 16.4645 15.1986 16.5284 15.1812 16.593C15.1608 16.6687 15.1429 16.7454 15.1276 16.8231C15.1252 16.8352 15.1229 16.8474 15.1206 16.8596L15.12 16.8633L15.119 16.8683L15.117 16.8795L15.1132 16.9006L15.1121 16.9072C15.0886 17.0309 14.9114 17.0309 14.8879 16.9072L14.8869 16.9013C14.8839 16.8844 14.8824 16.8759 14.881 16.8683L14.88 16.8633L14.8794 16.8596C14.8771 16.8474 14.8748 16.8352 14.8724 16.8231C14.8571 16.7454 14.8392 16.6687 14.8188 16.593C14.8014 16.5284 14.7821 16.4645 14.7611 16.4015C14.4211 15.3815 13.6185 14.5789 12.5985 14.2389C12.5355 14.2179 12.4716 14.1986 12.407 14.1812Z" fill="currentColor"></path>
    <path d="M14.0911 4.08065C14.2173 4.10476 14.3397 4.13903 14.4576 4.1826C14.5281 4.20867 14.597 4.23806 14.664 4.2706C15.1282 4.49592 15.5041 4.87183 15.7294 5.33601C15.7619 5.40303 15.7913 5.4719 15.8174 5.54242C15.861 5.66026 15.8952 5.78271 15.9193 5.90891L15.9245 5.93676C15.9395 6.02108 16.0605 6.02108 16.0755 5.93676L16.0807 5.90891C16.1048 5.78271 16.139 5.66026 16.1826 5.54242C16.2087 5.4719 16.2381 5.40303 16.2706 5.33601C16.4959 4.87183 16.8718 4.49592 17.336 4.2706C17.403 4.23806 17.4719 4.20867 17.5424 4.1826C17.6603 4.13903 17.7827 4.10476 17.9089 4.08065L17.9368 4.07551C18.0211 4.06047 18.0211 3.93953 17.9368 3.92449L17.9089 3.91935C17.7827 3.89524 17.6603 3.86097 17.5424 3.8174C17.4719 3.79133 17.403 3.76194 17.336 3.7294C16.8718 3.50408 16.4959 3.12817 16.2706 2.664C16.2381 2.59697 16.2087 2.5281 16.1826 2.45758C16.139 2.33974 16.1048 2.21728 16.0807 2.09109L16.0755 2.06323C16.0605 1.97892 15.9395 1.97892 15.9245 2.06323L15.9193 2.09109C15.8952 2.21728 15.861 2.33974 15.8174 2.45758C15.7913 2.5281 15.7619 2.59697 15.7294 2.664C15.5041 3.12817 15.1282 3.50408 14.664 3.7294C14.597 3.76194 14.5281 3.79133 14.4576 3.8174C14.3397 3.86097 14.2173 3.89524 14.0911 3.91935L14.0632 3.92449C13.9789 3.93953 13.9789 4.06047 14.0632 4.07551L14.0911 4.08065Z" fill="currentColor"></path>
    <path d="M3 14H9V15H3V14Z" fill="currentColor"></path>
    <path d="M9 17V16H3V17H4.5C4.5 17.5523 5.17157 18 6 18C6.82843 18 7.5 17.5523 7.5 17H9Z" fill="currentColor"></path>
  </symbol>
</svg>